<?xml version="1.0"?>
 <svg xmlns="http://www.w3.org/2000/svg" id="Layer_1" data-name="Layer 1" viewBox="0 0 120 135" width="120" height="135"><defs><style>.cls-1{fill:#f38835;}.cls-2{fill:#fff;}</style></defs><title>01_INSTANA_IconSet</title><path class="cls-1" d="M52,4.64,9.56,29.15A16,16,0,0,0,1.57,43V92a16,16,0,0,0,8,13.84L52,130.36a16,16,0,0,0,16,0l42.45-24.51a16,16,0,0,0,8-13.84V43a16,16,0,0,0-8-13.84L68,4.64A16,16,0,0,0,52,4.64Z"></path><polygon class="cls-2" points="33.2 49.42 33.2 85.57 36.56 87.29 37.62 86.92 37.62 48.08 36.56 47.7 33.2 49.42"></polygon><polygon class="cls-2" points="39.14 46.41 39.14 88.58 43.28 90.72 44.6 90.24 44.6 44.77 43.28 44.28 39.14 46.41"></polygon><polygon class="cls-2" points="46.12 42.81 46.12 92.18 51.22 94.8 53.01 94.1 53.01 40.91 51.22 40.19 46.12 42.81"></polygon><path class="cls-2" d="M73.74,59.1a8.11,8.11,0,0,0-1.48.07c-.74.17-1.28.76-1.42,2a8.26,8.26,0,0,0,0,1.22c.11,1.45,1,2.23,1.84,1.69a2.79,2.79,0,0,0,1-1.61,7.59,7.59,0,0,0,.23-2.3c0-.26,0-.52,0-.77S73.88,59.09,73.74,59.1Z"></path><path class="cls-2" d="M60.38,36l-5.46,2.81V96.19L60.38,99,86.8,86.68V48.57Zm13.5,18.85a2.18,2.18,0,0,0-.95-1.8,1.25,1.25,0,0,0-1.56,0,1.82,1.82,0,0,0-.56,1.16c-.09.58-.24.69-.63.53-.54-.21-1.08-.42-1.62-.65L68.32,54a.84.84,0,0,1-.32-.87,5.91,5.91,0,0,1,.84-2.6,2.72,2.72,0,0,1,2.46-1.28,5.65,5.65,0,0,1,3.76,1.69,5.92,5.92,0,0,1,1.88,4.21c0,.44,0,.88,0,1.31,0,1.77,0,3.55,0,5.32a4.77,4.77,0,0,0,.55,2.35c.1.17.19.35.28.53a.66.66,0,0,1-.09.79c-.5.56-1,1.14-1.5,1.72-.3.35-.49.37-.78,0a13.58,13.58,0,0,1-.78-1.23,5.07,5.07,0,0,1-.28-.57l-.56.72a3.27,3.27,0,0,1-4.1,1.2c-1.11-.48-1.76-1.8-2-3.66a8.91,8.91,0,0,1,.69-5.19,3.3,3.3,0,0,1,2.22-1.76,10.21,10.21,0,0,1,2.65-.1l.48.05c.11,0,.17-.06.16-.22C73.91,55.86,73.92,55.36,73.88,54.85ZM69.82,79.2l-1.68.36v1.35l1.56-.38v1.8l-1.56.42v1.61l1.68-.5v1.82l-3.08,1V78l3.08-.56ZM73.17,83a1.92,1.92,0,0,0,.66-.35,5.21,5.21,0,0,0,.65-.53V83.8a3.9,3.9,0,0,1-1.47.91,1.46,1.46,0,0,1-1.8-.45,5.16,5.16,0,0,1-.62-2.9,8.07,8.07,0,0,1,.3-2.28,3.91,3.91,0,0,1,.88-1.63,2.34,2.34,0,0,1,1.34-.74,2.44,2.44,0,0,1,1.61.24l-.44,1.7a3.28,3.28,0,0,0-.57-.21,1.26,1.26,0,0,0-.61,0,1.14,1.14,0,0,0-.78.79A4.73,4.73,0,0,0,72,81C72,82.52,72.41,83.17,73.17,83Zm5.9-.36-3.76,1.25V82.52l1.26-2.18c.36-.62.6-1,.71-1.25a3.12,3.12,0,0,0,.23-.55,1.31,1.31,0,0,0,.07-.44.56.56,0,0,0-.13-.41.37.37,0,0,0-.37-.07.94.94,0,0,0-.49.3,4.85,4.85,0,0,0-.57.71l-.77-1.12a6,6,0,0,1,.68-.86,2.11,2.11,0,0,1,.6-.44,2.36,2.36,0,0,1,.72-.25,1.59,1.59,0,0,1,.9.08,1.22,1.22,0,0,1,.61.56,1.84,1.84,0,0,1,.22.94,3.79,3.79,0,0,1-.08.77,4.38,4.38,0,0,1-.23.73,8.25,8.25,0,0,1-.43.82c-.17.29-.55.87-1.12,1.75v0l2-.59v1.52Zm1.08-13.16c-.17.17-.35.34-.54.5a14.2,14.2,0,0,1-5.4,3c-.59.17-1.18.28-1.78.42A9,9,0,0,1,66,71.43a13.52,13.52,0,0,1-2.89-3.27A.61.61,0,0,1,63,68a3.59,3.59,0,0,1,0-.46c.08,0,.18-.11.25-.07a6.23,6.23,0,0,1,.55.49,12.36,12.36,0,0,0,3.84,2.44,11.75,11.75,0,0,0,4.51.78,15.8,15.8,0,0,0,7.6-2.34,1.58,1.58,0,0,1,.23-.11.27.27,0,0,1,.38.19A.45.45,0,0,1,80.15,69.43ZM82,67.76A6,6,0,0,1,80.94,71a1.43,1.43,0,0,1-.23.26c-.06,0-.16.07-.2,0a.34.34,0,0,1,0-.25c.07-.29.18-.56.24-.85.13-.55.25-1.09.34-1.64.06-.39-.06-.56-.37-.63s-.44,0-.7-.08l-1.3.18h-.14c-.15,0-.2-.18-.09-.32a1.32,1.32,0,0,1,.35-.32,3.4,3.4,0,0,1,2.77-.39C81.93,67.17,82,67.3,82,67.76Z"></path></svg> 