<?xml version="1.0"?>
 <svg xmlns="http://www.w3.org/2000/svg" xmlns:xlink="http://www.w3.org/1999/xlink" version="1.1" width="148" height="181" viewBox="-0.5 -0.5 148 181"><defs></defs><g><path d="M 73.22 180 L 58.62 172.6 L 58.62 161.21 L 45.73 166.05 L 34.59 160.37 L 34.59 152.21 L 24.48 155.12 L 15.46 150.52 L 15.46 144.52 L 7.3 146.38 L 0 142.65 L 0 37.37 L 7.3 33.65 L 15.46 35.51 L 15.46 29.51 L 24.48 24.91 L 34.59 27.79 L 34.59 19.66 L 45.73 13.98 L 58.62 18.79 L 58.62 7.43 L 73.22 0 L 146.5 37.35 L 146.5 142.65 Z" fill="#f58534" stroke="none" pointer-events="all"></path><path d="M 7.3 146.38 L 0 142.65 L 0 37.37 L 7.3 33.65 Z M 24.48 155.12 L 15.46 150.52 L 15.46 29.51 L 24.48 24.91 Z M 45.73 166.05 L 34.59 160.37 L 34.59 19.66 L 45.73 13.98 Z M 58.62 172.6 L 58.62 7.43 L 73.22 0 L 73.22 180 Z" fill-opacity="0.3" fill="#000000" stroke="none" pointer-events="all"></path></g></svg>